<?xml version="1.0" encoding="UTF-8"?>
<svg version="1.1" xmlns="http://www.w3.org/2000/svg" width="500" height="500">
<path d="M0 0 C2.50160818 1.87620613 3.61945652 3.23891303 5 6 C5.08649451 8.48099734 5.11565054 10.93344928 5.09765625 13.4140625 C5.0962413 14.14370209 5.09482635 14.87334167 5.09336853 15.62509155 C5.08776531 17.95843585 5.07521235 20.29168464 5.0625 22.625 C5.05748541 24.20572778 5.05292243 25.78645707 5.04882812 27.3671875 C5.03779484 31.24482854 5.02052811 35.12239807 5 39 C5.75539063 39.13148438 6.51078125 39.26296875 7.2890625 39.3984375 C14.16812604 40.92491558 19.76691401 45.50706699 24 51 C29.23445029 60.40312333 31.73105851 70.05286773 29.3984375 80.76171875 C28.42586858 84.04782283 27.46783882 87.16090416 25.79492188 90.16137695 C24.67574531 94.15789599 25.97323104 96.99110214 27.4296875 100.70703125 C27.69886993 101.43242599 27.96805237 102.15782074 28.24539185 102.90519714 C29.10623579 105.21388347 29.99015748 107.51291877 30.875 109.8125 C31.46378449 111.37897748 32.05104227 112.94602971 32.63671875 114.51367188 C34.07078843 118.35072234 35.53574213 122.17383052 37 126 C42.94 126.33 48.88 126.66 55 127 C56.125 138.625 56.125 138.625 55 142 C51.04 142.33 47.08 142.66 43 143 C43.45890625 144.14855469 43.9178125 145.29710937 44.390625 146.48046875 C49.96859076 160.55935175 49.96859076 160.55935175 52 167.5 C53.76086886 173.48996416 55.98028038 179.23347001 58.27978516 185.03125 C60.71818251 191.20135283 62.96497656 197.42498691 65.13427734 203.69433594 C66.40831388 207.41211201 66.40831388 207.41211201 68 211 C68.08057294 212.97851332 68.13899272 214.95794096 68.1875 216.9375 C68.62389081 224.21318815 70.50250895 230.57058843 72.91674805 237.42553711 C74.41302203 241.74120648 75.54528347 245.36163938 75 250 C74.34 250.99 73.68 251.98 73 253 C69.15012052 252.45001722 67.50728412 250.91137068 65 248 C63.63984015 244.93862529 62.55012988 241.83974302 61.44140625 238.6796875 C60.26919128 235.80334219 60.26919128 235.80334219 57.58984375 235.0703125 C53.35485901 233.32010765 51.89651707 229.0318302 50.11836243 225.00189209 C49.23890121 222.84160071 48.40002562 220.66963699 47.57421875 218.48828125 C47.26562424 217.68600098 46.95702972 216.8837207 46.63908386 216.05712891 C45.64921654 213.47783813 44.66804996 210.89534563 43.6875 208.3125 C43.00881484 206.53728142 42.32994068 204.76213509 41.65087891 202.98706055 C37.98297744 193.37195209 34.40242869 183.73613796 31.08544922 173.9934082 C29.31739667 168.81386841 27.29625216 163.78673515 25.1328125 158.7578125 C20 146.26206897 20 146.26206897 20 142 C3.83 142 -12.34 142 -29 142 C-29.99 144.97 -30.98 147.94 -32 151 C-36.36015622 163.61636241 -40.84822086 176.19601094 -45.83984375 188.578125 C-48.46686683 195.12018367 -50.9471633 201.71751354 -53.4375 208.3125 C-55.28891623 213.20938037 -57.14362917 218.10499608 -59 223 C-59.44093994 224.17014648 -59.88187988 225.34029297 -60.33618164 226.54589844 C-62.54230754 232.35813542 -64.80225017 238.05326601 -67.5625 243.625 C-68.12066406 244.77226562 -68.67882812 245.91953125 -69.25390625 247.1015625 C-70.95499412 249.92529225 -72.1440634 251.40319377 -75 253 C-78.37036311 252.75925978 -79.58798021 252.41201979 -82 250 C-83.04019753 232.96896933 -79.52987318 213.7156275 -73 198 C-72.60941406 197.05769531 -72.21882812 196.11539063 -71.81640625 195.14453125 C-71.0089552 193.22518039 -70.19494054 191.30857996 -69.375 189.39453125 C-66.26549566 181.7179424 -63.69524172 173.82937269 -61 166 C-59.73345626 162.33183281 -58.46157067 158.66555847 -57.1875 155 C-56.75268311 153.73639648 -56.75268311 153.73639648 -56.30908203 152.44726562 C-56.03563965 151.66029297 -55.76219727 150.87332031 -55.48046875 150.0625 C-55.24223389 149.37285156 -55.00399902 148.68320312 -54.75854492 147.97265625 C-53.97146611 145.92579537 -52.98072754 143.96145508 -52 142 C-56.29 142 -60.58 142 -65 142 C-65 137.05 -65 132.1 -65 127 C-58.73 127 -52.46 127 -46 127 C-45.60683594 125.61039062 -45.21367187 124.22078125 -44.80859375 122.7890625 C-43.59124321 118.7159238 -42.17304442 114.78397256 -40.59765625 110.8359375 C-40.18322266 109.77632813 -39.76878906 108.71671875 -39.34179688 107.625 C-38.48256144 105.44214846 -37.60196275 103.26759624 -36.70117188 101.1015625 C-34.36884661 95.46099635 -34.36884661 95.46099635 -34.60498047 89.55175781 C-35.60701937 87.56582466 -36.73456259 85.8240689 -38 84 C-40.49757113 76.5072866 -40.43185431 64.98110568 -37.1875 57.6875 C-36.49197213 56.43899061 -35.76639248 55.2063073 -35 54 C-34.46375 52.989375 -33.9275 51.97875 -33.375 50.9375 C-32.92125 50.298125 -32.4675 49.65875 -32 49 C-31.34 49 -30.68 49 -30 49 C-30 48.34 -30 47.68 -30 47 C-29.34 47 -28.68 47 -28 47 C-28 46.34 -28 45.68 -28 45 C-27.34 45 -26.68 45 -26 45 C-26 44.34 -26 43.68 -26 43 C-24.73308493 42.32591692 -23.46129251 41.66099503 -22.1875 41 C-21.47980469 40.62875 -20.77210938 40.2575 -20.04296875 39.875 C-18 39 -18 39 -15 39 C-15.0314209 37.59306885 -15.0314209 37.59306885 -15.06347656 36.15771484 C-15.13189373 32.65761375 -15.18191586 29.15822934 -15.21972656 25.65771484 C-15.23976791 24.14653264 -15.26700905 22.63542728 -15.30175781 21.12451172 C-15.35061109 18.94479357 -15.37304224 16.76610569 -15.390625 14.5859375 C-15.4220459 12.62213135 -15.4220459 12.62213135 -15.45410156 10.61865234 C-14.92523161 6.40418436 -13.65540017 4.27203075 -11 1 C-7.55258453 -0.72370774 -3.76964661 -0.50306672 0 0 Z M-17.875 63.1875 C-19.96554256 68.4138564 -20.86440195 73.56667469 -18.8125 78.9375 C-17.03702873 81.93743422 -16.26726992 82.98601968 -13 84 C-13 84.66 -13 85.32 -13 86 C-8.84709692 88.01352876 -5.5960387 88.47545228 -1 88 C3.20463948 86.52793544 6.03766386 84.43055452 8.375 80.625 C11.00994799 74.87824651 11.00994799 74.87824651 10.3359375 68.765625 C8.08322632 63.16131913 5.51085385 59.75542692 0 57 C-7.41026156 56.07937687 -12.85244426 57.32785164 -17.875 63.1875 Z M-16 106 C-17.17495143 108.93425371 -18.33850852 111.87289513 -19.5 114.8125 C-19.83386719 115.64587891 -20.16773438 116.47925781 -20.51171875 117.33789062 C-20.82753906 118.14033203 -21.14335937 118.94277344 -21.46875 119.76953125 C-21.90864258 120.87711792 -21.90864258 120.87711792 -22.35742188 122.00708008 C-23.15343666 124.12688312 -23.15343666 124.12688312 -23 127 C-10.79 127 1.42 127 14 127 C11.67539216 119.08947606 11.67539216 119.08947606 8.875 111.4375 C8.54242188 110.61121094 8.20984375 109.78492188 7.8671875 108.93359375 C7.15329146 107.03468055 7.15329146 107.03468055 6 106 C4.36527118 105.91299658 2.72685945 105.89298937 1.08984375 105.90234375 C-0.39418945 105.90717773 -0.39418945 105.90717773 -1.90820312 105.91210938 C-2.94912109 105.92048828 -3.99003906 105.92886719 -5.0625 105.9375 C-6.62967773 105.94426758 -6.62967773 105.94426758 -8.22851562 105.95117188 C-10.8190666 105.96300087 -13.40950559 105.97948311 -16 106 Z " fill="#262A75" transform="translate(255,115)"/>
<path d="M0 0 C1.876875 0.020625 3.75375 0.04125 5.6875 0.0625 C5.6875 4.3525 5.6875 8.6425 5.6875 13.0625 C1.92773438 14.18554688 1.92773438 14.18554688 -1.83203125 15.30859375 C-3.66723055 15.86637873 -5.49283726 16.45594575 -7.3125 17.0625 C-7.3125 17.7225 -7.3125 18.3825 -7.3125 19.0625 C-7.9725 19.0625 -8.6325 19.0625 -9.3125 19.0625 C-10.08565766 21.81558343 -10.44341472 24.28099391 -10.47021484 27.13745117 C-10.48560806 28.32470039 -10.48560806 28.32470039 -10.50131226 29.53593445 C-10.50861359 30.38388077 -10.51591492 31.23182709 -10.5234375 32.10546875 C-10.55151864 33.9199307 -10.58018318 35.7343837 -10.609375 37.54882812 C-10.65050112 40.39460883 -10.68740912 43.24022469 -10.71386719 46.08618164 C-10.74168676 48.84295765 -10.78756637 51.59898648 -10.8359375 54.35546875 C-10.83919037 55.19329391 -10.84244324 56.03111908 -10.84579468 56.89433289 C-10.99185913 64.01184513 -12.20562078 71.55861288 -17.25 76.9375 C-17.73339844 77.47117187 -18.21679688 78.00484375 -18.71484375 78.5546875 C-20.47915468 80.2197829 -22.34632739 81.6441379 -24.3125 83.0625 C-23.40757812 83.75472656 -23.40757812 83.75472656 -22.484375 84.4609375 C-21.68515625 85.11320312 -20.8859375 85.76546875 -20.0625 86.4375 C-19.27359375 87.06398438 -18.4846875 87.69046875 -17.671875 88.3359375 C-10.66934921 96.42826035 -10.76216271 105.81832466 -10.921875 116.0390625 C-10.92935248 117.45965776 -10.93503827 118.88026346 -10.93902588 120.3008728 C-10.95416413 124.00658577 -10.99334018 127.71165314 -11.0378418 131.41711426 C-11.07905274 135.21158113 -11.0970915 139.00615421 -11.1171875 142.80078125 C-11.15984934 150.22168 -11.23009837 157.64191662 -11.3125 165.0625 C-16.9225 165.0625 -22.5325 165.0625 -28.3125 165.0625 C-28.31660889 163.22623047 -28.32071777 161.38996094 -28.32495117 159.49804688 C-28.34440651 153.4069879 -28.38680542 147.31642024 -28.44459057 141.22560883 C-28.47877133 137.5354156 -28.50395647 133.84563241 -28.50805664 130.15527344 C-28.51235905 126.58871225 -28.54097923 123.02307461 -28.58593178 119.45680237 C-28.60509756 117.44520892 -28.5995683 115.43342868 -28.59355164 113.42175293 C-28.70934876 106.1078628 -29.21831694 100.60386997 -34.3125 95.0625 C-37.44898776 92.69100926 -39.44372653 92.02969337 -43.3125 91.0625 C-43.3125 86.1125 -43.3125 81.1625 -43.3125 76.0625 C-41.7346875 75.4746875 -41.7346875 75.4746875 -40.125 74.875 C-34.98993684 72.67128869 -31.47250233 69.23380543 -29.3125 64.0625 C-29.01687026 61.996574 -29.01687026 61.996574 -29.05712891 59.81982422 C-29.05016998 58.99151093 -29.04321106 58.16319763 -29.03604126 57.30978394 C-29.03703827 56.42122711 -29.03803528 55.53267029 -29.0390625 54.6171875 C-29.01875955 52.71614009 -28.99790852 50.81509848 -28.9765625 48.9140625 C-28.9540545 45.93224202 -28.93752596 42.95065126 -28.93164062 39.96875 C-28.9220381 37.08031103 -28.8881553 34.19289398 -28.8515625 31.3046875 C-28.85660797 30.42827606 -28.86165344 29.55186462 -28.86685181 28.64889526 C-28.75251802 21.34550973 -26.55333102 15.54416205 -23.3125 9.0625 C-22.6525 9.0625 -21.9925 9.0625 -21.3125 9.0625 C-21.3125 8.4025 -21.3125 7.7425 -21.3125 7.0625 C-20.6525 7.0625 -19.9925 7.0625 -19.3125 7.0625 C-19.3125 6.4025 -19.3125 5.7425 -19.3125 5.0625 C-18.08743102 4.40892722 -16.85720484 3.76501767 -15.625 3.125 C-14.94050781 2.76535156 -14.25601563 2.40570313 -13.55078125 2.03515625 C-9.06506644 0.08586657 -4.84622901 -0.05325526 0 0 Z " fill="#272A73" transform="translate(179.3125,156.9375)"/>
<path d="M0 0 C10.0523969 -0.22589656 17.49630223 0.38755947 26 6 C26.33 6.99 26.66 7.98 27 9 C27.66 9 28.32 9 29 9 C29.64757625 10.43671568 30.29299453 11.87440416 30.9375 13.3125 C31.29714844 14.11300781 31.65679687 14.91351563 32.02734375 15.73828125 C33.42340466 18.98454336 34.12880542 21.61000396 34.18945312 25.11669922 C34.20617065 25.94120575 34.22288818 26.76571228 34.2401123 27.61520386 C34.25368774 28.50273346 34.26726318 29.39026306 34.28125 30.3046875 C34.30886414 31.67888351 34.30886414 31.67888351 34.33703613 33.08084106 C34.39579291 36.01216203 34.44858776 38.94354158 34.5 41.875 C34.56779568 45.72668175 34.6415163 49.57818478 34.71875 53.4296875 C34.73232544 54.31316864 34.74590088 55.19664978 34.7598877 56.10690308 C34.84199782 60.18752908 34.99019096 64.01902205 36 68 C36.66 68 37.32 68 38 68 C38.556875 68.763125 39.11375 69.52625 39.6875 70.3125 C42.58995152 73.68561934 44.86695832 74.48985015 49 76 C49 80.95 49 85.9 49 91 C45.535 91.99 45.535 91.99 42 93 C39.68015159 93.61680413 39.68015159 93.61680413 38 95 C36.76242123 97.96260526 36.76242123 97.96260526 36 101 C35.67 101.66 35.34 102.32 35 103 C34.90283827 104.341148 34.86454325 105.6868464 34.8581543 107.03149414 C34.85111984 107.86318619 34.84408539 108.69487823 34.83683777 109.55177307 C34.83267349 110.45378952 34.82850922 111.35580597 34.82421875 112.28515625 C34.80100333 114.19727643 34.77688532 116.10938581 34.75195312 118.02148438 C34.71697026 121.03416984 34.68757186 124.0464632 34.67407227 127.05932617 C34.6584874 129.96842182 34.618193 132.87636848 34.57421875 135.78515625 C34.57612717 136.67300308 34.57803558 137.56084991 34.58000183 138.4756012 C34.40072473 147.75700925 31.01033085 154.65703223 24.734375 161.40234375 C21.22334597 164.63660247 18.69030179 165 14 165 C13.29866401 163.42274653 12.614417 161.83788667 11.9375 160.25 C11.36322266 158.92742187 11.36322266 158.92742187 10.77734375 157.578125 C9.89888988 154.6646599 9.74792534 153.74513441 11 151 C11.83257324 150.17113281 12.66514648 149.34226562 13.52294922 148.48828125 C16.98098579 144.37611389 16.66109452 140.31205697 16.56640625 135.140625 C16.57204086 134.19620544 16.57767548 133.25178589 16.58348083 132.27874756 C16.59989099 129.26865668 16.58444117 126.26003885 16.5625 123.25 C16.54582543 120.25437663 16.53694003 117.25973923 16.55223083 114.26409912 C16.56140091 112.40524947 16.55272066 110.54618923 16.52259827 108.68756104 C16.55595069 100.66853189 18.64350524 93.15634576 24 87 C24.66 87 25.32 87 26 87 C26 86.34 26 85.68 26 85 C27.5 83.375 27.5 83.375 29 82 C28.46890625 81.62230469 27.9378125 81.24460937 27.390625 80.85546875 C26.68421875 80.30503906 25.9778125 79.75460938 25.25 79.1875 C24.55390625 78.66542969 23.8578125 78.14335937 23.140625 77.60546875 C15.11828883 67.84105593 16.46049602 55.08963334 16.5 43.1875 C16.5120772 39.51380609 16.49833108 35.84153771 16.46875 32.16796875 C16.48006958 31.33661911 16.49138916 30.50526947 16.50305176 29.64872742 C16.45665147 24.2991378 15.57977507 21.22883283 12 17 C7.78816701 14.34471398 5.08478723 13.84746454 0 13 C0 8.71 0 4.42 0 0 Z " fill="#252972" transform="translate(315,157)"/>
<path d="M0 0 C15.18 0 30.36 0 46 0 C46 3.96 46 7.92 46 12 C30.82 12 15.64 12 0 12 C0 8.04 0 4.08 0 0 Z " fill="#24286E" transform="translate(213,332)"/>
<path d="M0 0 C2.51083114 1.25541557 2.87125446 2.50063488 4 5 C4.99 5 5.98 5 7 5 C7.5775 5.763125 8.155 6.52625 8.75 7.3125 C11.60325902 10.72055938 13.87250447 11.49187663 18 13 C18 17.95 18 22.9 18 28 C15.69 28.66 13.38 29.32 11 30 C10.278125 30.556875 9.55625 31.11375 8.8125 31.6875 C8.214375 32.120625 7.61625 32.55375 7 33 C5.65737935 32.70630173 4.32303717 32.3721042 3 32 C0.78228936 32.85790183 0.78228936 32.85790183 -1 34 C-1 32.35 -1 30.7 -1 29 C-0.01 28.67 0.98 28.34 2 28 C2.33 27.01 2.66 26.02 3 25 C5.0625 24.3125 5.0625 24.3125 7 24 C6.67 23.01 6.34 22.02 6 21 C6.33 20.01 6.66 19.02 7 18 C3.27569643 17.30710631 -0.21083746 16.88855404 -4 17 C-3.04393103 11.12700488 -1.96385405 5.62971494 0 0 Z " fill="#1D216D" transform="translate(346,220)"/>
<path d="M0 0 C2.35953094 2.35953094 2.49141413 3.77895617 3 7 C3.33 5.02 3.66 3.04 4 1 C5.97491258 4.636054 7.30211185 8.46786523 8.625 12.375 C8.85445313 13.02210938 9.08390625 13.66921875 9.3203125 14.3359375 C10.67886468 18.34690107 11.42653383 21.77122173 11 26 C10.34 26.99 9.68 27.98 9 29 C5.14733221 28.44961889 3.51910583 26.90255354 1 24 C-0.44921875 21.0546875 -0.44921875 21.0546875 -1.6875 17.875 C-2.10386719 16.82054687 -2.52023437 15.76609375 -2.94921875 14.6796875 C-3.46935547 13.35324219 -3.46935547 13.35324219 -4 12 C-4.33 11.34 -4.66 10.68 -5 10 C-3.68 10 -2.36 10 -1 10 C-1.01160156 9.36191406 -1.02320313 8.72382813 -1.03515625 8.06640625 C-1.04869141 6.82697266 -1.04869141 6.82697266 -1.0625 5.5625 C-1.07410156 4.73878906 -1.08570313 3.91507812 -1.09765625 3.06640625 C-1 1 -1 1 0 0 Z " fill="#21277C" transform="translate(319,339)"/>
<path d="M0 0 C2.35953094 2.35953094 2.49141413 3.77895617 3 7 C3.33 5.02 3.66 3.04 4 1 C5.97491258 4.636054 7.30211185 8.46786523 8.625 12.375 C8.85445313 13.02210938 9.08390625 13.66921875 9.3203125 14.3359375 C10.6816193 18.35503375 11.24913364 21.7647282 11 26 C9.45921385 23.01559439 8.13026724 19.98992242 6.875 16.875 C6.52179688 16.00617188 6.16859375 15.13734375 5.8046875 14.2421875 C5 12 5 12 5 10 C4.01 10 3.02 10 2 10 C2 11.65 2 13.3 2 15 C1.01 14.01 0.02 13.02 -1 12 C-0.01 14.64 0.98 17.28 2 20 C1.34 20.66 0.68 21.32 0 22 C-0.27714844 21.30132812 -0.55429687 20.60265625 -0.83984375 19.8828125 C-1.20207031 18.97273438 -1.56429688 18.06265625 -1.9375 17.125 C-2.29714844 16.22007812 -2.65679687 15.31515625 -3.02734375 14.3828125 C-3.94901262 12.03862333 -3.94901262 12.03862333 -5 10 C-3.68 10 -2.36 10 -1 10 C-1.01160156 9.36191406 -1.02320313 8.72382813 -1.03515625 8.06640625 C-1.04869141 6.82697266 -1.04869141 6.82697266 -1.0625 5.5625 C-1.07410156 4.73878906 -1.08570313 3.91507812 -1.09765625 3.06640625 C-1 1 -1 1 0 0 Z " fill="#202883" transform="translate(319,339)"/>
<path d="M0 0 C0 1.32 0 2.64 0 4 C0.33 4.99 0.66 5.98 1 7 C-2.44175522 9.14699969 -4.7720292 9.09856795 -8.75 8.625 C-10.22726562 8.45871094 -10.22726562 8.45871094 -11.734375 8.2890625 C-12.48203125 8.19367188 -13.2296875 8.09828125 -14 8 C-13.34 7.67 -12.68 7.34 -12 7 C-12 6.34 -12 5.68 -12 5 C-10.5 3.375 -10.5 3.375 -9 2 C-9.66 1.34 -10.32 0.68 -11 0 C-7.01803543 -1.05404945 -4.01804691 -0.84098656 0 0 Z " fill="#35377D" transform="translate(353,237)"/>
<path d="M0 0 C1.485 0.99 1.485 0.99 3 2 C3.19501281 5.12824279 3.20564503 8.04529678 3.07421875 11.1640625 C3.04777786 12.07127045 3.02133698 12.97847839 2.99409485 13.91317749 C2.90615109 16.81777438 2.79706582 19.72114601 2.6875 22.625 C2.62425998 24.59110158 2.56239331 26.55724786 2.50195312 28.5234375 C2.35058122 33.34962171 2.18024223 38.17481122 2 43 C1.34 43 0.68 43 0 43 C0 28.81 0 14.62 0 0 Z " fill="#5C5F8F" transform="translate(332,178)"/>
<path d="M0 0 C8.1627907 -0.62790698 8.1627907 -0.62790698 11.5 1.875 C14.23852154 5.75457219 14.13111783 8.80119543 14.09765625 13.4140625 C14.0962413 14.14370209 14.09482635 14.87334167 14.09336853 15.62509155 C14.08776531 17.95843585 14.07521235 20.29168464 14.0625 22.625 C14.05748541 24.20572778 14.05292243 25.78645707 14.04882812 27.3671875 C14.03779484 31.24482854 14.02052811 35.12239807 14 39 C13.67 39 13.34 39 13 39 C12.93268677 37.56950317 12.93268677 37.56950317 12.86401367 36.11010742 C12.69369929 32.57022929 12.50480765 29.0315445 12.31030273 25.49291992 C12.22873429 23.9616061 12.15219865 22.43001553 12.08081055 20.89819336 C11.97728174 18.69552868 11.85565524 16.49449557 11.73046875 14.29296875 C11.70220505 13.60849167 11.67394135 12.92401459 11.64482117 12.21879578 C11.41497318 8.3962196 11.41497318 8.3962196 9.5168457 5.16918945 C9.01628662 4.78335693 8.51572754 4.39752441 8 4 C7.67 3.34 7.34 2.68 7 2 C4.69 2 2.38 2 0 2 C0 1.34 0 0.68 0 0 Z " fill="#7D7EA5" transform="translate(246,115)"/>
<path d="M0 0 C1.2294789 3.75881091 1.0236807 7.24687887 0.87890625 11.171875 C0.85529526 11.8542926 0.83168427 12.53671021 0.80735779 13.23980713 C0.7310504 15.41010058 0.64688594 17.58000714 0.5625 19.75 C0.50924627 21.22524176 0.45650611 22.70050216 0.40429688 24.17578125 C0.2754805 27.78408912 0.13961806 31.3920921 0 35 C-0.99 35.495 -0.99 35.495 -2 36 C-2 24.45 -2 12.9 -2 1 C-1.34 0.67 -0.68 0.34 0 0 Z " fill="#161851" transform="translate(243,119)"/>
<path d="M0 0 C2.76223278 2.76223278 2.57856291 5.20706617 3 9 C2.34 9 1.68 9 1 9 C1 10.32 1 11.64 1 13 C0.01 13 -0.98 13 -2 13 C-5.07692308 6.6 -5.07692308 6.6 -4.6875 3.5625 C-4.460625 3.046875 -4.23375 2.53125 -4 2 C-2.68 2 -1.36 2 0 2 C0 1.34 0 0.68 0 0 Z " fill="#313576" transform="translate(284,265)"/>
<path d="M0 0 C5.94 0 11.88 0 18 0 C18 0.33 18 0.66 18 1 C13.05 1.33 8.1 1.66 3 2 C2.67 5.3 2.34 8.6 2 12 C5.96 12 9.92 12 14 12 C14 12.33 14 12.66 14 13 C9.38 13 4.76 13 0 13 C0 8.71 0 4.42 0 0 Z " fill="#1A1A57" transform="translate(190,243)"/>
<path d="M0 0 C0.33 0.66 0.66 1.32 1 2 C0.34 2 -0.32 2 -1 2 C-1.04125 2.680625 -1.0825 3.36125 -1.125 4.0625 C-2.35298961 8.18503653 -4.84923793 11.09996171 -8 14 C-8.66 14 -9.32 14 -10 14 C-10.33 15.32 -10.66 16.64 -11 18 C-11.66 18 -12.32 18 -13 18 C-11.78065514 13.96678237 -10.44045073 10.45730521 -8 7 C-7.34 7 -6.68 7 -6 7 C-6 6.34 -6 5.68 -6 5 C-5.34 5 -4.68 5 -4 5 C-4 4.34 -4 3.68 -4 3 C-3.34 3 -2.68 3 -2 3 C-2 2.34 -2 1.68 -2 1 C-1.34 0.67 -0.68 0.34 0 0 Z " fill="#46477C" transform="translate(231,157)"/>
<path d="M0 0 C0.66 0 1.32 0 2 0 C2.33 0.99 2.66 1.98 3 3 C3.99 3.66 4.98 4.32 6 5 C6 5.66 6 6.32 6 7 C2.62902617 8.49821059 0.79557881 9 -3 9 C-3.33 7.35 -3.66 5.7 -4 4 C-3.01 4 -2.02 4 -1 4 C-0.67 2.68 -0.34 1.36 0 0 Z " fill="#3D3F78" transform="translate(332,313)"/>
<path d="M0 0 C1.97491258 3.636054 3.30211185 7.46786523 4.625 11.375 C4.85445313 12.02210938 5.08390625 12.66921875 5.3203125 13.3359375 C6.6816193 17.35503375 7.24913364 20.7647282 7 25 C5.28527506 21.69815757 3.85309549 18.31468576 2.4375 14.875 C0.8140301 10.89405658 0.8140301 10.89405658 -1 7 C-0.71758117 4.6599583 -0.38749213 2.32495277 0 0 Z " fill="#545589" transform="translate(323,340)"/>
<path d="M0 0 C-0.061875 1.11375 -0.12375 2.2275 -0.1875 3.375 C-0.125625 4.57125 -0.06375 5.7675 0 7 C0.99 7.66 1.98 8.32 3 9 C1.906875 9.28875 0.81375 9.5775 -0.3125 9.875 C-4.04013845 10.81893204 -4.04013845 10.81893204 -7 13 C-7 12.01 -7 11.02 -7 10 C-6.01 9.67 -5.02 9.34 -4 9 C-4.83333333 6.83333333 -4.83333333 6.83333333 -7 6 C-6 5 -5 4 -4 3 C-3.46375 2.443125 -2.9275 1.88625 -2.375 1.3125 C-1 0 -1 0 0 0 Z " fill="#1E2476" transform="translate(361,239)"/>
<path d="M0 0 C0.66 0 1.32 0 2 0 C2 0.66 2 1.32 2 2 C7.94 2 13.88 2 20 2 C20 4.64 20 7.28 20 10 C19.01 9.67 18.02 9.34 17 9 C17.185625 8.360625 17.37125 7.72125 17.5625 7.0625 C17.706875 6.381875 17.85125 5.70125 18 5 C16.35254404 3.35254404 14.44664549 3.8290384 12.1875 3.8125 C11.31480469 3.79832031 10.44210937 3.78414062 9.54296875 3.76953125 C6.89080915 4.00989594 5.27535001 4.65812691 3 6 C1.5 4.6875 1.5 4.6875 0 3 C0 2.01 0 1.02 0 0 Z " fill="#1D1F67" transform="translate(289,241)"/>
<path d="M0 0 C3.62676404 2.41784269 3.91799088 3.80939007 5.25 7.875 C5.78367187 9.44894531 5.78367187 9.44894531 6.328125 11.0546875 C6.98249236 13.92325141 7.01983395 15.2935176 6 18 C5.34 17.67 4.68 17.34 4 17 C4.0825 16.2575 4.165 15.515 4.25 14.75 C4.29003365 11.87252685 4.29003365 11.87252685 2.0625 10.125 C-0.73103709 7.24681027 -0.77795164 4.92285441 -1 1 C-0.67 0.67 -0.34 0.34 0 0 Z " fill="#393C77" transform="translate(277,205)"/>
<path d="M0 0 C2.475 0.99 2.475 0.99 5 2 C4.24172908 3.17487036 3.46792245 4.33972592 2.6875 5.5 C2.25824219 6.1496875 1.82898438 6.799375 1.38671875 7.46875 C0.70029297 8.22671875 0.70029297 8.22671875 0 9 C-2 9 -4 9 -6 9 C-5.525625 8.21625 -5.05125 7.4325 -4.5625 6.625 C-3.66101977 5.11051322 -2.78820515 3.5764103 -2 2 C-1.34 2 -0.68 2 0 2 C0 1.34 0 0.68 0 0 Z " fill="#1C236E" transform="translate(264,197)"/>
<path d="M0 0 C0.66 0.33 1.32 0.66 2 1 C2.3125 3.25 2.3125 3.25 2 6 C-0.1875 8.375 -0.1875 8.375 -3 10 C-5.8125 9.75 -5.8125 9.75 -8 9 C-7.67 8.34 -7.34 7.68 -7 7 C-5.68 7 -4.36 7 -3 7 C-3 5.68 -3 4.36 -3 3 C-1.5 1.25 -1.5 1.25 0 0 Z " fill="#3F4385" transform="translate(183,358)"/>
<path d="M0 0 C0 2 0 4 0 6 C-0.66 6 -1.32 6 -2 6 C-2 5.34 -2 4.68 -2 4 C-2.66 4 -3.32 4 -4 4 C-4 3.34 -4 2.68 -4 2 C-4.66 2 -5.32 2 -6 2 C-6 2.66 -6 3.32 -6 4 C-9 3 -9 3 -11 0 C-7.01803543 -1.05404945 -4.01804691 -0.84098656 0 0 Z " fill="#36397C" transform="translate(353,237)"/>
<path d="M0 0 C0.33 0.66 0.66 1.32 1 2 C1.99 2.33 2.98 2.66 4 3 C4 4.32 4 5.64 4 7 C2.68 7 1.36 7 0 7 C-0.66 8.65 -1.32 10.3 -2 12 C-2.66 11.67 -3.32 11.34 -4 11 C-3.48964169 6.6109185 -2.47785723 3.66291938 0 0 Z " fill="#3E417A" transform="translate(337,247)"/>
<path d="M0 0 C0.47050781 0.40992188 0.94101562 0.81984375 1.42578125 1.2421875 C2.04839844 1.78101563 2.67101562 2.31984375 3.3125 2.875 C4.23482422 3.67550781 4.23482422 3.67550781 5.17578125 4.4921875 C7.13498212 6.1640447 7.13498212 6.1640447 10 8 C10 8.66 10 9.32 10 10 C6.46322336 10.32152515 4.6037896 10.4131192 1.625 8.375 C-0.4131192 5.3962104 -0.32152515 3.53677664 0 0 Z " fill="#31336D" transform="translate(352,225)"/>
<path d="M0 0 C0.66 0.99 1.32 1.98 2 3 C1.2884375 4.175625 1.2884375 4.175625 0.5625 5.375 C-0.33898023 6.88948678 -1.21179485 8.4235897 -2 10 C-5.0318856 11.88186002 -6.24517355 12 -10 12 C-9.67 11.01 -9.34 10.02 -9 9 C-8.030625 8.690625 -7.06125 8.38125 -6.0625 8.0625 C-2.93451782 7.31945092 -2.93451782 7.31945092 -1.6875 5.0625 C-1.460625 4.381875 -1.23375 3.70125 -1 3 C-0.67 2.01 -0.34 1.02 0 0 Z " fill="#4D4F84" transform="translate(264,192)"/>
<path d="M0 0 C1.9375 0.6875 1.9375 0.6875 4 2 C5.2652614 5.60112861 4.9392247 8.34745949 4 12 C1.27352315 9.64531545 0.01243658 7.4591583 -1 4 C-0.625 1.6875 -0.625 1.6875 0 0 Z " fill="#30316F" transform="translate(288,288)"/>
<path d="M0 0 C0.144375 0.598125 0.28875 1.19625 0.4375 1.8125 C0.8872439 3.56150404 1.42892341 5.28677023 2 7 C0.22773678 10.63780345 -2.05248333 13.25576034 -5 16 C-4.49228528 10.03435204 -2.61407872 5.36190101 0 0 Z " fill="#515283" transform="translate(156,166)"/>
<path d="M0 0 C0 3 0 3 -2 6 C-1.67 6.66 -1.34 7.32 -1 8 C-2.375 10.625 -2.375 10.625 -4 13 C-4.33 13 -4.66 13 -5 13 C-5 9.04 -5 5.08 -5 1 C-3.35 0.67 -1.7 0.34 0 0 Z " fill="#1E205D" transform="translate(142,232)"/>
<path d="M0 0 C0.66 0.33 1.32 0.66 2 1 C2 1.99 2 2.98 2 4 C3.98 4 5.96 4 8 4 C-0.02058824 8.15882353 -0.02058824 8.15882353 -3.3125 7.625 C-3.869375 7.41875 -4.42625 7.2125 -5 7 C-4 5 -4 5 -1 3 C-0.67 2.01 -0.34 1.02 0 0 Z " fill="#1B1F6B" transform="translate(229,239)"/>
<path d="M0 0 C4.95 0.33 9.9 0.66 15 1 C15 1.33 15 1.66 15 2 C9.06 2.495 9.06 2.495 3 3 C3.33 4.98 3.66 6.96 4 9 C3.01 8.67 2.02 8.34 1 8 C0.67 5.36 0.34 2.72 0 0 Z " fill="#5B5B88" transform="translate(295,255)"/>
<path d="M0 0 C1.60332791 -0.08121924 3.20784026 -0.13929134 4.8125 -0.1875 C6.15248047 -0.23970703 6.15248047 -0.23970703 7.51953125 -0.29296875 C10 0 10 0 13 3 C8.71 3 4.42 3 0 3 C0 2.01 0 1.02 0 0 Z " fill="#15185D" transform="translate(296,253)"/>
<path d="M0 0 C6.76470588 5.29411765 6.76470588 5.29411765 8 9 C8 9.99 8 10.98 8 12 C6.68 11.67 5.36 11.34 4 11 C4.33 10.01 4.66 9.02 5 8 C4.34 8 3.68 8 3 8 C0 2.25 0 2.25 0 0 Z " fill="#47487D" transform="translate(158,243)"/>
<path d="M0 0 C0.99 0 1.98 0 3 0 C3.625 1.875 3.625 1.875 4 4 C3.34 4.66 2.68 5.32 2 6 C2 6.66 2 7.32 2 8 C1.01 8.33 0.02 8.66 -1 9 C-2.4606285 6.35261084 -3 5.10551666 -3 2 C-2.01 2.495 -2.01 2.495 -1 3 C-0.67 2.01 -0.34 1.02 0 0 Z " fill="#20267C" transform="translate(321,349)"/>
<path d="M0 0 C0.66 0 1.32 0 2 0 C2.99 3.63 3.98 7.26 5 11 C3.33333333 11 1.66666667 11 0 11 C0 7.37 0 3.74 0 0 Z " fill="#393C74" transform="translate(306,285)"/>
<path d="M0 0 C0.928125 0.103125 1.85625 0.20625 2.8125 0.3125 C3.1425 0.9725 3.4725 1.6325 3.8125 2.3125 C1.8325 2.3125 -0.1475 2.3125 -2.1875 2.3125 C-2.31125 3.281875 -2.435 4.25125 -2.5625 5.25 C-2.76875 6.260625 -2.975 7.27125 -3.1875 8.3125 C-4.1775 8.8075 -4.1775 8.8075 -5.1875 9.3125 C-6.33566394 6.49427943 -6.24402601 5.45880262 -5.125 2.5625 C-3.1875 0.3125 -3.1875 0.3125 0 0 Z " fill="#232460" transform="translate(241.1875,217.6875)"/>
<path d="M0 0 C1.36421031 2.72842061 0.87807211 4.60953318 0.5625 7.625 C0.46066406 8.62789063 0.35882813 9.63078125 0.25390625 10.6640625 C0.17011719 11.43492187 0.08632812 12.20578125 0 13 C-1.32 12.67 -2.64 12.34 -4 12 C-3.52494322 10.18641846 -3.04483958 8.37415821 -2.5625 6.5625 C-2.29566406 5.55316406 -2.02882812 4.54382813 -1.75390625 3.50390625 C-1 1 -1 1 0 0 Z " fill="#494C80" transform="translate(189,296)"/>
<path d="M0 0 C2 1 2 1 2.8125 3.3125 C3 6 3 6 1.5625 8.3125 C1.046875 8.869375 0.53125 9.42625 0 10 C-0.99 8.02 -1.98 6.04 -3 4 C-2.34 4 -1.68 4 -1 4 C-0.67 2.68 -0.34 1.36 0 0 Z " fill="#393A78" transform="translate(149,248)"/>
<path d="M0 0 C0.33 0 0.66 0 1 0 C1.29915966 8.97478992 1.29915966 8.97478992 -1 12 C-1.99 12.33 -2.98 12.66 -4 13 C-3.52140759 11.39566191 -3.04210442 9.79153584 -2.5625 8.1875 C-2.29566406 7.29417969 -2.02882812 6.40085938 -1.75390625 5.48046875 C-1.19612127 3.64526945 -0.60655425 1.81966274 0 0 Z " fill="#535687" transform="translate(219,213)"/>
<path d="M0 0 C1.37095624 3.69037278 0.60010967 5.70883835 -0.9375 9.25 C-1.31777344 10.14203125 -1.69804687 11.0340625 -2.08984375 11.953125 C-2.39019531 12.62859375 -2.69054687 13.3040625 -3 14 C-3.33 14 -3.66 14 -4 14 C-4.08912219 10.16774573 -3.87867729 6.73437848 -3 3 C-2.34 3 -1.68 3 -1 3 C-0.67 2.01 -0.34 1.02 0 0 Z " fill="#434274" transform="translate(225,255)"/>
<path d="M0 0 C0.33 0 0.66 0 1 0 C1.22786458 2.01822917 1.45572917 4.03645833 1.68359375 6.0546875 C1.91292961 8.07404316 1.91292961 8.07404316 3 10 C3.66 10.33 4.32 10.66 5 11 C4.01 12.485 4.01 12.485 3 14 C2.01 14 1.02 14 0 14 C0 9.38 0 4.76 0 0 Z " fill="#6E6F9E" transform="translate(136,233)"/>
<path d="M0 0 C0.66 0 1.32 0 2 0 C2 0.66 2 1.32 2 2 C2.66 2 3.32 2 4 2 C4 2.66 4 3.32 4 4 C5.65 4 7.3 4 9 4 C8.67 4.99 8.34 5.98 8 7 C4.21388773 6.45912682 2.44599233 4.88277668 0 2 C0 1.34 0 0.68 0 0 Z " fill="#636690" transform="translate(320,361)"/>
<path d="M0 0 C2.64 0.66 5.28 1.32 8 2 C6.68 3.32 5.36 4.64 4 6 C2 4.6875 2 4.6875 0 3 C0 2.01 0 1.02 0 0 Z " fill="#2C2F6D" transform="translate(334,313)"/>
<path d="M0 0 C1.890625 0.21484375 1.890625 0.21484375 4 1 C5.046875 3.06640625 5.046875 3.06640625 5.75 5.5625 C5.99234375 6.38878906 6.2346875 7.21507812 6.484375 8.06640625 C6.65453125 8.70449219 6.8246875 9.34257812 7 10 C6.34 10.66 5.68 11.32 5 12 C4.72285156 11.30132812 4.44570313 10.60265625 4.16015625 9.8828125 C3.79792969 8.97273438 3.43570312 8.06265625 3.0625 7.125 C2.70285156 6.22007812 2.34320313 5.31515625 1.97265625 4.3828125 C1.05098738 2.03862333 1.05098738 2.03862333 0 0 Z " fill="#52568D" transform="translate(314,349)"/>
<path d="M0 0 C2.475 0.99 2.475 0.99 5 2 C5 2.33 5 2.66 5 3 C3.906875 3.28875 2.81375 3.5775 1.6875 3.875 C-2.04013845 4.81893204 -2.04013845 4.81893204 -5 7 C-5 6.01 -5 5.02 -5 4 C-2.5 1.8125 -2.5 1.8125 0 0 Z " fill="#4E5181" transform="translate(359,245)"/>
<path d="M0 0 C2 2 2 2 2.5 4.5625 C2.665 5.366875 2.83 6.17125 3 7 C3.66 7.33 4.32 7.66 5 8 C5 8.66 5 9.32 5 10 C4.34 10 3.68 10 3 10 C-0.22265625 4.82421875 -0.22265625 4.82421875 -1 3 C-0.67 2.01 -0.34 1.02 0 0 Z " fill="#47487B" transform="translate(307,339)"/>
<path d="M0 0 C1.65 0.33 3.3 0.66 5 1 C5 1.99 5 2.98 5 4 C3.02 4.33 1.04 4.66 -1 5 C-0.67 3.35 -0.34 1.7 0 0 Z " fill="#1E2267" transform="translate(210,239)"/>
<path d="M0 0 C1.32 0.33 2.64 0.66 4 1 C3.01 3.97 2.02 6.94 1 10 C0.67 10 0.34 10 0 10 C0 6.7 0 3.4 0 0 Z " fill="#5B5C86" transform="translate(235,175)"/>
<path d="M0 0 C2.97 0 5.94 0 9 0 C8.67 1.32 8.34 2.64 8 4 C7.67 3.34 7.34 2.68 7 2 C4.69 2 2.38 2 0 2 C0 1.34 0 0.68 0 0 Z " fill="#525283" transform="translate(246,115)"/>
<path d="M0 0 C4.62 0 9.24 0 14 0 C14 0.99 14 1.98 14 3 C13.01 2.67 12.02 2.34 11 2 C9.10787263 1.77820215 7.21115528 1.59385985 5.3125 1.4375 C4.31863281 1.35371094 3.32476562 1.26992187 2.30078125 1.18359375 C1.16189453 1.09271484 1.16189453 1.09271484 0 1 C0 0.67 0 0.34 0 0 Z " fill="#1C2068" transform="translate(253,243)"/>
<path d="M0 0 C0.99 0.33 1.98 0.66 3 1 C4.23076923 6.41538462 4.23076923 6.41538462 3.0625 9.375 C2.711875 9.91125 2.36125 10.4475 2 11 C2 9.02 2 7.04 2 5 C1.34 5 0.68 5 0 5 C0 3.35 0 1.7 0 0 Z " fill="#3F4276" transform="translate(345,174)"/>
<path d="M0 0 C0.66 0.33 1.32 0.66 2 1 C1.01 2.485 1.01 2.485 0 4 C-0.66 4 -1.32 4 -2 4 C-2.66 4.66 -3.32 5.32 -4 6 C-4.66 5.67 -5.32 5.34 -6 5 C-6 4.34 -6 3.68 -6 3 C-4.03533587 1.93224776 -2.03144641 0.93446535 0 0 Z " fill="#60618C" transform="translate(166,159)"/>
<path d="M0 0 C0.33 0 0.66 0 1 0 C0.67 2.31 0.34 4.62 0 7 C-0.66 7 -1.32 7 -2 7 C-2.33 7.66 -2.66 8.32 -3 9 C-3.25873987 5.89512156 -3.23307327 4.37494396 -1.5625 1.6875 C-1.046875 1.130625 -0.53125 0.57375 0 0 Z " fill="#3C3E72" transform="translate(205,307)"/>
<path d="M0 0 C0.66 0 1.32 0 2 0 C2 1.32 2 2.64 2 4 C1.34 4 0.68 4 0 4 C-0.33 5.32 -0.66 6.64 -1 8 C-1.66 8 -2.32 8 -3 8 C-1.125 2.25 -1.125 2.25 0 0 Z " fill="#3B3C70" transform="translate(221,167)"/>
<path d="M0 0 C0.99 0 1.98 0 3 0 C3.33 1.98 3.66 3.96 4 6 C3.01 6 2.02 6 1 6 C0.67 4.02 0.34 2.04 0 0 Z " fill="#2D2E7D" transform="translate(178,325)"/>
<path d="M0 0 C3.875 1.75 3.875 1.75 5 4 C3.68 4 2.36 4 1 4 C0.67 4.66 0.34 5.32 0 6 C-0.38218767 4.34385343 -0.71395102 2.67542976 -1 1 C-0.67 0.67 -0.34 0.34 0 0 Z " fill="#393A7C" transform="translate(288,288)"/>
<path d="M0 0 C0.66 0 1.32 0 2 0 C2.33 0.99 2.66 1.98 3 3 C2.67 3.66 2.34 4.32 2 5 C0.35 4.67 -1.3 4.34 -3 4 C-3 3.34 -3 2.68 -3 2 C-2.01 2 -1.02 2 0 2 C0 1.34 0 0.68 0 0 Z " fill="#1A1D62" transform="translate(347,239)"/>
<path d="M0 0 C0.33 0 0.66 0 1 0 C1 1.98 1 3.96 1 6 C1.66 6.33 2.32 6.66 3 7 C0 7 0 7 -1.6875 5.5 C-2.120625 5.005 -2.55375 4.51 -3 4 C-2 2 -2 2 0 0 Z " fill="#45487A" transform="translate(339,228)"/>
<path d="M0 0 C0.99 0.33 1.98 0.66 3 1 C2.67 2.65 2.34 4.3 2 6 C1.01 6 0.02 6 -1 6 C-1.33 4.35 -1.66 2.7 -2 1 C-1.34 0.67 -0.68 0.34 0 0 Z " fill="#1C226E" transform="translate(275,209)"/>
<path d="M0 0 C1.32 0.66 2.64 1.32 4 2 C1.69 3.65 -0.62 5.3 -3 7 C-2.67 5.35 -2.34 3.7 -2 2 C-1.34 2 -0.68 2 0 2 C0 1.34 0 0.68 0 0 Z " fill="#1E2064" transform="translate(232,157)"/>
<path d="M0 0 C0.99 0 1.98 0 3 0 C2.45276317 3.37462715 1.9451 5.08235 0 8 C-0.38063221 5.6739143 -0.71269945 3.33944736 -1 1 C-0.67 0.67 -0.34 0.34 0 0 Z " fill="#57598C" transform="translate(198,322)"/>
<path d="M0 0 C-1.04874998 2.62187494 -1.64931313 3.79371361 -4.125 5.25 C-4.74375 5.4975 -5.3625 5.745 -6 6 C-6 4.68 -6 3.36 -6 2 C-2.25 0 -2.25 0 0 0 Z " fill="#414073" transform="translate(161,233)"/>
<path d="M0 0 C3.3 0.33 6.6 0.66 10 1 C10 1.99 10 2.98 10 4 C7.69 3.67 5.38 3.34 3 3 C3 2.34 3 1.68 3 1 C2.01 0.67 1.02 0.34 0 0 Z " fill="#24265F" transform="translate(252,170)"/>
</svg>
